<svg width="31" height="30" viewBox="0 0 31 30" fill="none" xmlns="http://www.w3.org/2000/svg">
<rect x="0.5" width="30" height="30" rx="4" fill="#FAC5C1"/>
<path d="M16.5004 12.3751V16.5418M16.5004 20.7084H16.5092M15.0042 7.02092L7.59291 21.7501C7.44011 22.0651 7.35926 22.4223 7.35841 22.7861C7.35755 23.1498 7.43672 23.5075 7.58804 23.8236C7.73936 24.1396 7.95755 24.403 8.22091 24.5874C8.48427 24.7719 8.78361 24.8711 9.08916 24.8751H23.9117C24.2172 24.8711 24.5166 24.7719 24.7799 24.5874C25.0433 24.403 25.2615 24.1396 25.4128 23.8236C25.5641 23.5075 25.6433 23.1498 25.6424 22.7861C25.6416 22.4223 25.5607 22.0651 25.4079 21.7501L17.9967 7.02092C17.8407 6.71479 17.621 6.46167 17.359 6.28601C17.0969 6.11035 16.8012 6.01807 16.5004 6.01807C16.1996 6.01807 15.904 6.11035 15.6419 6.28601C15.3798 6.46167 15.1602 6.71479 15.0042 7.02092Z" stroke="#EC221F" stroke-width="1.6" stroke-linecap="round" stroke-linejoin="round"/>
</svg>
