<svg width="30" height="30" viewBox="0 0 30 30" fill="none" xmlns="http://www.w3.org/2000/svg">
<rect width="30" height="30" rx="4" fill="#E8F1FD"/>
<path d="M13 24H8C6.89543 24 6 23.1046 6 22V15.2969C6 14.7852 6.19615 14.2929 6.54809 13.9215L13.5481 6.53257C14.3369 5.69989 15.663 5.69989 16.4519 6.53257L23.4519 13.9215C23.8038 14.2929 24 14.7852 24 15.2969V22C24 23.1046 23.1046 24 22 24H17M13 24V18.5C13 18.2239 13.2239 18 13.5 18H16.5C16.7761 18 17 18.2239 17 18.5V24M13 24H17" stroke="#5D6679" stroke-width="1.5"/>
</svg>
